<svg xmlns="http://www.w3.org/2000/svg" viewBox="0 0 287 79">
  <g transform="translate(-547 -25)">
    <g>
      <path fill="#f1f1f1" d="M679.579 56.324a14.8 14.8 0 0 1-2.058 2.6 11.929 11.929 0 0 1-2.289 1.768 5.469 5.469 0 0 1-2.877.8 4.867 4.867 0 0 1-2.982-.9 3.688 3.688 0 0 1-1.428-2.672 11.014 11.014 0 0 1-1.806 1.806 11.528 11.528 0 0 1-1.89 1.218 4.843 4.843 0 0 1-2.264.546 4.264 4.264 0 0 1-1.621-.315 3.857 3.857 0 0 1-1.344-.905 4.477 4.477 0 0 1-.9-1.386 4.5 4.5 0 0 1-.335-1.762 12.37 12.37 0 0 1 .857-4.494 15.772 15.772 0 0 1 2.243-4.011 12.256 12.256 0 0 1 3.112-2.877 6.388 6.388 0 0 1 3.444-1.092 6.4 6.4 0 0 1 2.142.315 6.173 6.173 0 0 1 1.428.693 4.773 4.773 0 0 1 1.008.966 5.045 5.045 0 0 1 .987.105 3.585 3.585 0 0 1 .966.336 2.227 2.227 0 0 1 .735.609 1.459 1.459 0 0 1 .294.924 5.206 5.206 0 0 1-.378 1.512l-.838 2.331q-.462 1.281-.84 2.646a9.188 9.188 0 0 0-.38 2.415 1.181 1.181 0 0 0 .315.84 1.123 1.123 0 0 0 .861.336 2.965 2.965 0 0 0 1.659-.546 7.382 7.382 0 0 0 1.449-1.26 9.314 9.314 0 0 0 1.386-1.806.827.827 0 0 1 .21-.294 1.457 1.457 0 0 1 .252-.189.7.7 0 0 1 .378-.105.877.877 0 0 1 .609.252.777.777 0 0 1 .273.588.791.791 0 0 1-.063.315q-.063.147-.147.315t-.168.378Zm-9.744-7.434a1.861 1.861 0 0 0-.441-1.365 1.458 1.458 0 0 0-1.071-.441 2.752 2.752 0 0 0-1.89.966 10.519 10.519 0 0 0-1.743 2.373 16.03 16.03 0 0 0-1.281 3.047 10.118 10.118 0 0 0-.5 2.94q0 1.89 1.218 1.89a2.7 2.7 0 0 0 1.739-1.01 13.318 13.318 0 0 0 1.869-2.478 19.009 19.009 0 0 0 1.491-3.087 8.217 8.217 0 0 0 .609-2.835Zm15.33 9.786a2.965 2.965 0 0 0 1.659-.546 7.382 7.382 0 0 0 1.449-1.26 9.314 9.314 0 0 0 1.386-1.806.827.827 0 0 1 .21-.294 1.457 1.457 0 0 1 .252-.189.7.7 0 0 1 .378-.105.877.877 0 0 1 .609.252.777.777 0 0 1 .273.588.791.791 0 0 1-.063.315q-.063.147-.147.315t-.168.378a14.8 14.8 0 0 1-2.058 2.6 11.929 11.929 0 0 1-2.289 1.768 5.469 5.469 0 0 1-2.877.8 6.37 6.37 0 0 1-2.058-.359 6.465 6.465 0 0 1-1.911-1.029 5.972 5.972 0 0 1-1.428-1.6 3.782 3.782 0 0 1-.567-2.016 13.746 13.746 0 0 1 .21-2.163q.21-1.281.588-2.793t.861-3.192q.483-1.68 1.029-3.318h-1.134q-.336 0-.336-.378a1.767 1.767 0 0 1 .4-.9 1.1 1.1 0 0 1 .861-.567h.84q.63-1.722 1.239-3.171a21.336 21.336 0 0 1 1.2-2.457 1.651 1.651 0 0 1 .462-.567 1.058 1.058 0 0 1 .672-.231 2.272 2.272 0 0 1 1.029.294 6.664 6.664 0 0 1 1.071.693 5.207 5.207 0 0 1 .84.819 1.244 1.244 0 0 1 .336.714 5.155 5.155 0 0 1-.4 1.323q-.4 1.029-.987 2.583h2.814q.336 0 .336.378a.991.991 0 0 1-.126.42 2.6 2.6 0 0 1-.315.483 2.686 2.686 0 0 1-.4.4.672.672 0 0 1-.42.168h-2.6q-.5 1.386-1.029 2.94t-.945 3.066q-.42 1.512-.693 2.919a13.463 13.463 0 0 0-.273 2.541 2.059 2.059 0 0 0 .645 1.578 2.222 2.222 0 0 0 1.575.606Zm9.534-5.376a3.974 3.974 0 0 0 2.142-.63 7.04 7.04 0 0 0 1.744-1.533 8.049 8.049 0 0 0 1.154-1.867 4.269 4.269 0 0 0 .42-1.638q0-.84-.756-.84a2.647 2.647 0 0 0-1.722.714 7.775 7.775 0 0 0-1.496 1.72 10.938 10.938 0 0 0-1.066 2.144 5.744 5.744 0 0 0-.42 1.93Zm11.3 3.024a10.726 10.726 0 0 1-2.31 2.6 13.318 13.318 0 0 1-2.921 1.768 9.869 9.869 0 0 1-4.137.8 8.991 8.991 0 0 1-2.94-.462 7.1 7.1 0 0 1-2.306-1.283 5.876 5.876 0 0 1-1.512-1.953 5.637 5.637 0 0 1-.546-2.478 10.588 10.588 0 0 1 .882-4.368 11.822 11.822 0 0 1 2.222-3.378 10.066 10.066 0 0 1 2.919-2.163 6.871 6.871 0 0 1 2.961-.756 4.35 4.35 0 0 1 1.806.378 5.113 5.113 0 0 1 1.47.987 4.49 4.49 0 0 1 .987 1.407 3.972 3.972 0 0 1 .357 1.638 6.281 6.281 0 0 1-.336 1.827 6.211 6.211 0 0 1-1.11 2.034 6.534 6.534 0 0 1-2.1 1.659 7.053 7.053 0 0 1-3.3.693 3.982 3.982 0 0 1-.966-.126 6.259 6.259 0 0 1-.63-.126 3.748 3.748 0 0 0 1.096 2.898 3.708 3.708 0 0 0 2.6 1.008 5.925 5.925 0 0 0 2.688-.609 10.232 10.232 0 0 0 2.058-1.323 8.7 8.7 0 0 0 1.722-1.932.827.827 0 0 1 .21-.294 1.457 1.457 0 0 1 .252-.189.7.7 0 0 1 .378-.105.877.877 0 0 1 .609.252.777.777 0 0 1 .273.588.791.791 0 0 1-.063.315q-.063.147-.147.315t-.168.378Zm12.136-21.084q0-.588-.5-.588-.588 0-1.533 1.3a23.431 23.431 0 0 0-1.974 3.4q-1.029 2.1-2.037 4.7a40.551 40.551 0 0 0-1.638 5.25 11.081 11.081 0 0 0 1.575-1.68 25.85 25.85 0 0 0 1.7-2.457q.84-1.365 1.638-2.835t1.407-2.835q.609-1.365.987-2.5a6.044 6.044 0 0 0 .375-1.755Zm-7.35 26.25a7.012 7.012 0 0 1-2.415-.42 5.948 5.948 0 0 1-2.037-1.239 6.05 6.05 0 0 1-1.407-2 6.423 6.423 0 0 1-.525-2.646 25.357 25.357 0 0 1 .483-4.662 37.3 37.3 0 0 1 1.365-5.145 47.63 47.63 0 0 1 2.036-5.014 27.326 27.326 0 0 1 2.541-4.347 14.413 14.413 0 0 1 2.878-3.047 4.94 4.94 0 0 1 3-1.134 2.814 2.814 0 0 1 1.344.336 4.394 4.394 0 0 1 1.113.84 4.31 4.31 0 0 1 .777 1.113 2.662 2.662 0 0 1 .294 1.155 7.061 7.061 0 0 1-.483 2.247 25.062 25.062 0 0 1-1.281 2.94q-.8 1.575-1.869 3.255t-2.226 3.255q-1.155 1.575-2.331 2.94a19.914 19.914 0 0 1-2.223 2.253q-.084.5-.168 1.05a9.853 9.853 0 0 0-.126 1.029q-.042.567-.042 1.113a3.885 3.885 0 0 0 .693 2.394 2.343 2.343 0 0 0 2 .924 2.965 2.965 0 0 0 1.659-.546 7.382 7.382 0 0 0 1.444-1.264 9.314 9.314 0 0 0 1.386-1.806.827.827 0 0 1 .21-.294 1.457 1.457 0 0 1 .252-.189.7.7 0 0 1 .378-.105.877.877 0 0 1 .609.252.777.777 0 0 1 .273.588.791.791 0 0 1-.063.315q-.063.147-.147.315t-.168.378a14.8 14.8 0 0 1-2.058 2.6 11.929 11.929 0 0 1-2.289 1.768 5.469 5.469 0 0 1-2.877.798Zm16.716-24.612a4.843 4.843 0 0 1-.273 1.617 4.738 4.738 0 0 1-.756 1.386 3.936 3.936 0 0 1-1.092.966 2.5 2.5 0 0 1-1.281.357 2.254 2.254 0 0 1-1.6-.63 2.3 2.3 0 0 1-.672-1.764 4.253 4.253 0 0 1 .294-1.554 5.234 5.234 0 0 1 .777-1.365 3.823 3.823 0 0 1 1.113-.966 2.683 2.683 0 0 1 1.344-.357 2.043 2.043 0 0 1 1.533.63 2.315 2.315 0 0 1 .613 1.68Zm-6.048 20.202a1.779 1.779 0 0 0 .357 1.155 1.2 1.2 0 0 0 .987.441 2.965 2.965 0 0 0 1.659-.546 7.382 7.382 0 0 0 1.449-1.26 9.313 9.313 0 0 0 1.386-1.806.827.827 0 0 1 .21-.294 1.457 1.457 0 0 1 .252-.189.7.7 0 0 1 .378-.105.877.877 0 0 1 .609.252.777.777 0 0 1 .273.588.791.791 0 0 1-.063.315q-.063.147-.147.315t-.168.378a14.8 14.8 0 0 1-2.058 2.6 11.929 11.929 0 0 1-2.292 1.768 5.469 5.469 0 0 1-2.877.8 5.67 5.67 0 0 1-3.861-1.283 4.219 4.219 0 0 1-1.47-3.339 12.144 12.144 0 0 1 .378-2.73q.378-1.6.882-3.234t1.071-3.108q.567-1.47.945-2.352a1.651 1.651 0 0 1 .462-.567 1.058 1.058 0 0 1 .672-.231 2.4 2.4 0 0 1 1.05.294 7.127 7.127 0 0 1 1.092.672 5.06 5.06 0 0 1 .84.777 1.148 1.148 0 0 1 .336.651 6.487 6.487 0 0 1-.378 2.079q-.378 1.113-.819 2.373t-.8 2.667a11.823 11.823 0 0 0-.355 2.919Zm10.878-3.78a3.974 3.974 0 0 0 2.142-.63 7.04 7.04 0 0 0 1.743-1.533 8.049 8.049 0 0 0 1.155-1.867 4.269 4.269 0 0 0 .42-1.638q0-.84-.756-.84a2.647 2.647 0 0 0-1.722.714 7.774 7.774 0 0 0-1.491 1.722 10.938 10.938 0 0 0-1.071 2.142 5.744 5.744 0 0 0-.42 1.93Zm11.3 3.024a10.726 10.726 0 0 1-2.31 2.6 13.317 13.317 0 0 1-2.921 1.768 9.869 9.869 0 0 1-4.137.8 8.991 8.991 0 0 1-2.94-.462 7.1 7.1 0 0 1-2.31-1.281 5.876 5.876 0 0 1-1.512-1.953 5.637 5.637 0 0 1-.546-2.478 10.588 10.588 0 0 1 .882-4.368 11.822 11.822 0 0 1 2.226-3.38 10.065 10.065 0 0 1 2.922-2.166 6.871 6.871 0 0 1 2.961-.756 4.35 4.35 0 0 1 1.806.378 5.113 5.113 0 0 1 1.47.987 4.49 4.49 0 0 1 .987 1.407 3.972 3.972 0 0 1 .357 1.638 6.281 6.281 0 0 1-.336 1.827 6.211 6.211 0 0 1-1.113 2.037 6.534 6.534 0 0 1-2.1 1.659 7.053 7.053 0 0 1-3.3.693 3.982 3.982 0 0 1-.966-.126 6.259 6.259 0 0 1-.63-.126 3.748 3.748 0 0 0 1.092 2.9 3.708 3.708 0 0 0 2.6 1.008 5.925 5.925 0 0 0 2.688-.609 10.232 10.232 0 0 0 2.058-1.323 8.7 8.7 0 0 0 1.726-1.934.827.827 0 0 1 .21-.294 1.457 1.457 0 0 1 .252-.189.7.7 0 0 1 .378-.105.877.877 0 0 1 .609.252.777.777 0 0 1 .273.588.791.791 0 0 1-.063.315q-.063.147-.147.315t-.168.378Zm-6.972-15.33a.645.645 0 0 0-.252.084l-.336.168q-.714.42-1.512.819t-1.512.714q-.714.315-1.239.525a2.407 2.407 0 0 1-.735.21.7.7 0 0 1-.546-.231.713.713 0 0 1-.21-.483 1.271 1.271 0 0 1 .672-1.008 23.733 23.733 0 0 0 2-1.449 22.441 22.441 0 0 0 2.121-2.037q.462-.588.861-1.008a1.637 1.637 0 0 1 1.239-.42 1.491 1.491 0 0 1 .693.126 1.311 1.311 0 0 1 .4.336 2.172 2.172 0 0 1 .294.5 4.683 4.683 0 0 0 .336.63 14.357 14.357 0 0 0 1.352 1.894 11.875 11.875 0 0 0 1.407 1.386 4.779 4.779 0 0 1 .588.462.685.685 0 0 1 .168.5.828.828 0 0 1-.231.525.715.715 0 0 1-.567.273 2.878 2.878 0 0 1-.588-.105 7.636 7.636 0 0 1-1.029-.357 11.445 11.445 0 0 1-1.365-.693 11.182 11.182 0 0 1-1.554-1.113.7.7 0 0 0-.457-.248Z"/>
      <path  transform="translate(552.968 95.143)" fill="#f1f1f1" data-name="Path 30" d="M64.739.774A11.551 11.551 0 0 1 60.557 0a10.911 10.911 0 0 1-3.523-2.168 10.269 10.269 0 0 1-2.4-3.369 10.522 10.522 0 0 1-.891-4.375 45.8 45.8 0 0 1 1.157-9.835q-2.4-1.162-4.956-2.633t-5.416-3.02q-3.33 5.963-6.04 10.8a53.2 53.2 0 0 1-5.576 8.25 22.469 22.469 0 0 1-6.2 5.266 15.957 15.957 0 0 1-7.9 1.859 15.163 15.163 0 0 1-6.77-1.666A21.183 21.183 0 0 1 6-5.382a23.487 23.487 0 0 1-4.337-6.5A18.479 18.479 0 0 1 0-19.592a18.426 18.426 0 0 1 1.355-7.086 16.8 16.8 0 0 1 3.872-5.731 18.081 18.081 0 0 1 6.079-3.833 21.732 21.732 0 0 1 7.976-1.394 38.425 38.425 0 0 1 10.532 1.472 103.642 103.642 0 0 1 10.221 3.485Q43.6-38.487 46.618-42.9a55.272 55.272 0 0 1 5.847-7.318 23.3 23.3 0 0 1 5.576-4.375 12.06 12.06 0 0 1 5.769-1.471 8.458 8.458 0 0 1 4.1.929 11.6 11.6 0 0 1 2.091 1.316 10.189 10.189 0 0 1 3.33-1.355 14.994 14.994 0 0 1 2.943-.348q2.323 0 2.323 1.084a1.471 1.471 0 0 1-.426.891q-.426.5-1.433 1.665a21.067 21.067 0 0 0-2.13 3.678q-1.355 2.749-2.9 6.544t-3.175 8.286q-1.626 4.491-2.943 8.983h.929a6.693 6.693 0 0 0 2.052-.31q.968-.31 1.781-.658t1.394-.658a2.178 2.178 0 0 1 .968-.31.669.669 0 0 1 .465.232.946.946 0 0 1 .232.7 3.66 3.66 0 0 1-.813 1.7 15.818 15.818 0 0 1-2.13 2.4 20.259 20.259 0 0 1-3.02 2.323 9.5 9.5 0 0 1-3.562 1.394q-.465 2.246-.736 4.3a28.872 28.872 0 0 0-.271 3.756A5.071 5.071 0 0 0 64.2-5.614a4.448 4.448 0 0 0 3.1 1.2 5.466 5.466 0 0 0 3.059-1.007 13.611 13.611 0 0 0 2.672-2.323 17.172 17.172 0 0 0 2.555-3.33 1.525 1.525 0 0 1 .387-.542 2.686 2.686 0 0 1 .465-.348 1.288 1.288 0 0 1 .7-.194 1.617 1.617 0 0 1 1.123.465 1.433 1.433 0 0 1 .5 1.084 1.459 1.459 0 0 1-.116.581q-.116.271-.271.581t-.31.7a27.3 27.3 0 0 1-3.795 4.8A21.992 21.992 0 0 1 70.044-.7a10.084 10.084 0 0 1-5.3 1.471Zm-47.7-7.821a10.187 10.187 0 0 0 5.111-1.316 18.824 18.824 0 0 0 4.685-3.988 54.517 54.517 0 0 0 4.956-6.737q2.594-4.066 5.847-9.486a43.733 43.733 0 0 0-6.079-1.9 28.221 28.221 0 0 0-6.466-.736q-8.363 0-13.087 3.988a13.23 13.23 0 0 0-4.727 10.65 9.6 9.6 0 0 0 .775 3.872 9.036 9.036 0 0 0 2.091 3.02 9.537 9.537 0 0 0 3.1 1.936 10.32 10.32 0 0 0 3.795.7Zm29.969-22.69q2.478 1.007 4.84 1.936t4.685 1.626a107.177 107.177 0 0 1 4.915-13.435q2.9-6.544 5.769-11.732a4.787 4.787 0 0 0-.736-.232 4.7 4.7 0 0 0-.968-.077 7.18 7.18 0 0 0-3.988 1.239 18.41 18.41 0 0 0-4.025 3.871 61.119 61.119 0 0 0-4.646 6.815q-2.518 4.181-5.848 9.989Zm55.679 22.38a3.28 3.28 0 0 0 .658 2.13 2.212 2.212 0 0 0 1.82.813 5.466 5.466 0 0 0 3.059-1.007 13.611 13.611 0 0 0 2.672-2.323 17.172 17.172 0 0 0 2.556-3.33 1.526 1.526 0 0 1 .387-.542 2.686 2.686 0 0 1 .465-.348 1.288 1.288 0 0 1 .7-.194 1.617 1.617 0 0 1 1.123.465 1.433 1.433 0 0 1 .5 1.084 1.459 1.459 0 0 1-.116.581q-.116.271-.271.581t-.31.7a27.3 27.3 0 0 1-3.795 4.8A21.993 21.993 0 0 1 107.912-.7a10.084 10.084 0 0 1-5.3 1.471 10.687 10.687 0 0 1-7.129-2.281 7 7 0 0 1-2.71-5.537 16.969 16.969 0 0 1 .62-4.608q.619-2.207 1.355-4.3t1.352-3.986a11.824 11.824 0 0 0 .62-3.678 1.068 1.068 0 0 0-.465-.891 1.757 1.757 0 0 0-1.084-.348 6.262 6.262 0 0 0-3.833 1.665 17.249 17.249 0 0 0-3.872 4.8 31.417 31.417 0 0 0-3.02 7.589 38.565 38.565 0 0 0-1.2 10.028q0 1.007-.426 1.278a2.413 2.413 0 0 1-1.278.271 10.286 10.286 0 0 1-5.188-1.2 3.514 3.514 0 0 1-2.091-3.059A34.27 34.27 0 0 1 75-10.338q.736-3.6 1.742-6.97t2.052-6.234q1.045-2.865 1.742-4.491a2.14 2.14 0 0 1 2.092-1.467 5.411 5.411 0 0 1 2.246.7 9.692 9.692 0 0 1 3.175 3.485 20.507 20.507 0 0 1 3.64-2.478 27.2 27.2 0 0 1 3.872-1.7 13.713 13.713 0 0 1 4.646-.774 5.266 5.266 0 0 1 2.439.62 8.047 8.047 0 0 1 2.13 1.588 7.868 7.868 0 0 1 1.471 2.13 5.452 5.452 0 0 1 .542 2.323 11.88 11.88 0 0 1-.658 3.756q-.658 1.975-1.394 4.066t-1.394 4.22a14.233 14.233 0 0 0-.658 4.22Zm50.023-1.394a27.3 27.3 0 0 1-3.795 4.8A21.993 21.993 0 0 1 144.7-.7a10.084 10.084 0 0 1-5.3 1.471 8.974 8.974 0 0 1-5.5-1.665 6.8 6.8 0 0 1-2.633-4.917 20.306 20.306 0 0 1-3.33 3.33 21.255 21.255 0 0 1-3.485 2.246 8.93 8.93 0 0 1-4.189 1.009 7.862 7.862 0 0 1-2.981-.581 7.111 7.111 0 0 1-2.482-1.664 8.255 8.255 0 0 1-1.665-2.555 8.3 8.3 0 0 1-.62-3.252 22.808 22.808 0 0 1 1.587-8.286 29.079 29.079 0 0 1 4.143-7.4 22.6 22.6 0 0 1 5.73-5.3 11.778 11.778 0 0 1 6.35-2.013 11.8 11.8 0 0 1 3.949.581 11.383 11.383 0 0 1 2.633 1.278 8.8 8.8 0 0 1 1.859 1.781 9.3 9.3 0 0 1 1.82.194 6.609 6.609 0 0 1 1.781.62 4.1 4.1 0 0 1 1.355 1.123 2.691 2.691 0 0 1 .542 1.7 9.6 9.6 0 0 1-.7 2.788q-.7 1.936-1.549 4.3t-1.549 4.879a16.942 16.942 0 0 0-.7 4.453 2.177 2.177 0 0 0 .581 1.549 2.071 2.071 0 0 0 1.588.62A5.466 5.466 0 0 0 145-5.421a13.61 13.61 0 0 0 2.672-2.323 17.172 17.172 0 0 0 2.556-3.33 1.525 1.525 0 0 1 .387-.542 2.686 2.686 0 0 1 .465-.348 1.288 1.288 0 0 1 .7-.194 1.617 1.617 0 0 1 1.123.465 1.433 1.433 0 0 1 .5 1.084 1.459 1.459 0 0 1-.116.581q-.116.271-.271.581t-.31.7Zm-17.966-13.706a3.431 3.431 0 0 0-.813-2.517 2.689 2.689 0 0 0-1.975-.813 5.075 5.075 0 0 0-3.485 1.781 19.4 19.4 0 0 0-3.214 4.375 29.555 29.555 0 0 0-2.362 5.614 18.655 18.655 0 0 0-.929 5.421q0 3.485 2.246 3.485 1.394 0 3.214-1.859a24.557 24.557 0 0 0 3.446-4.569 35.047 35.047 0 0 0 2.749-5.692 15.15 15.15 0 0 0 1.123-5.227Zm22.845 5.034a72.949 72.949 0 0 1-4.879 8.673 6.665 6.665 0 0 1-.581.7 1.451 1.451 0 0 1-1.123.465 1.555 1.555 0 0 1-1.123-.5 1.555 1.555 0 0 1-.5-1.123 1.812 1.812 0 0 1 .348-1.045 7.159 7.159 0 0 0 .5-.813q1.084-1.549 3.059-4.917a42.936 42.936 0 0 0 3.678-8.867q1.084-3.485 2.826-4.453a8.923 8.923 0 0 1 4.375-.968 23.852 23.852 0 0 1 3.446.232q1.588.232 2.981.5t2.672.5a14.473 14.473 0 0 0 2.594.232 5.818 5.818 0 0 0 3.02-.736 4.337 4.337 0 0 1 2.091-.736 1.82 1.82 0 0 1 1.123.465 5.451 5.451 0 0 1 1.045 1.123 6.016 6.016 0 0 1 .736 1.394 3.95 3.95 0 0 1 .271 1.355q0 .852-2.246 2.788t-5.421 4.414q-3.175 2.478-6.621 5.227a71.2 71.2 0 0 0-5.924 5.227 14.669 14.669 0 0 1 4.53.62q1.9.62 3.485 1.316t3.059 1.316a8.509 8.509 0 0 0 3.33.62 5.466 5.466 0 0 0 3.06-1.007 13.61 13.61 0 0 0 2.672-2.323 17.171 17.171 0 0 0 2.556-3.33 1.525 1.525 0 0 1 .387-.542 2.686 2.686 0 0 1 .465-.348 1.288 1.288 0 0 1 .7-.194 1.617 1.617 0 0 1 1.123.465 1.434 1.434 0 0 1 .5 1.084 1.459 1.459 0 0 1-.116.581q-.116.271-.271.581t-.31.7a27.3 27.3 0 0 1-3.795 4.8A21.993 21.993 0 0 1 181.092-.7a10.084 10.084 0 0 1-5.3 1.471 15.689 15.689 0 0 1-2.865-.232q-1.239-.232-2.478-.5t-2.633-.5a20.013 20.013 0 0 0-3.258-.239 12.459 12.459 0 0 0-4.569.736 9.041 9.041 0 0 1-3.252.736 2.64 2.64 0 0 1-1.355-.387 5.344 5.344 0 0 1-1.2-.968 4.831 4.831 0 0 1-.852-1.239 2.853 2.853 0 0 1-.31-1.2 3.562 3.562 0 0 1 1.045-2.013 30.315 30.315 0 0 1 2.749-2.788q1.7-1.549 3.795-3.252t4.182-3.446q2.091-1.742 3.949-3.407a30.086 30.086 0 0 0 3.02-3.059 12.39 12.39 0 0 1-4.337-.774 12.39 12.39 0 0 0-4.337-.774 3.956 3.956 0 0 0-2.9 1.2 16.093 16.093 0 0 0-2.597 3.911Zm56.066 10.066a3.28 3.28 0 0 0 .658 2.13 2.213 2.213 0 0 0 1.82.813 5.466 5.466 0 0 0 3.059-1.007 13.611 13.611 0 0 0 2.672-2.323 17.172 17.172 0 0 0 2.555-3.33 1.525 1.525 0 0 1 .387-.542 2.685 2.685 0 0 1 .465-.348 1.288 1.288 0 0 1 .7-.194 1.616 1.616 0 0 1 1.123.465 1.433 1.433 0 0 1 .5 1.084 1.458 1.458 0 0 1-.116.581q-.116.271-.271.581t-.31.7a27.3 27.3 0 0 1-3.795 4.8 21.993 21.993 0 0 1-4.22 3.247 10.084 10.084 0 0 1-5.3 1.471 12.777 12.777 0 0 1-3.833-.5 9.465 9.465 0 0 1-2.71-1.316 7.3 7.3 0 0 1-1.82-1.859 7.607 7.607 0 0 1-1.007-2.13 20.719 20.719 0 0 1-2.13 2.13 16.923 16.923 0 0 1-2.594 1.859 15.44 15.44 0 0 1-2.9 1.316 9.389 9.389 0 0 1-2.981.5 7.309 7.309 0 0 1-2.749-.581 9.226 9.226 0 0 1-2.594-1.588 8.8 8.8 0 0 1-1.936-2.4 5.971 5.971 0 0 1-.774-2.943 24.417 24.417 0 0 1 .7-5.188q.7-3.1 1.626-6.311t1.975-6.079q1.045-2.865 1.742-4.491a3.045 3.045 0 0 1 .852-1.045 1.951 1.951 0 0 1 1.239-.426 4.421 4.421 0 0 1 1.936.542 13.141 13.141 0 0 1 2.013 1.239 9.332 9.332 0 0 1 1.549 1.433 2.117 2.117 0 0 1 .62 1.2 11.85 11.85 0 0 1-.774 3.949q-.774 2.168-1.742 4.685t-1.742 5.266a20.333 20.333 0 0 0-.774 5.537 2.865 2.865 0 0 0 .465 1.626 1.491 1.491 0 0 0 1.316.7 4.326 4.326 0 0 0 1.936-.5 9.176 9.176 0 0 0 1.936-1.316 13.9 13.9 0 0 0 1.7-1.781 10.789 10.789 0 0 0 1.239-1.9 31.143 31.143 0 0 0 1.471-3.795q.852-2.555 1.742-5.421t1.742-5.614q.852-2.749 1.549-4.375a3.045 3.045 0 0 1 .852-1.045 2.065 2.065 0 0 1 1.316-.426 4.189 4.189 0 0 1 1.9.542A14.106 14.106 0 0 1 215.9-28.5a9.329 9.329 0 0 1 1.549 1.433 2.117 2.117 0 0 1 .62 1.2 11.961 11.961 0 0 1-.7 3.833q-.7 2.052-1.51 4.375t-1.51 4.917a20.655 20.655 0 0 0-.7 5.382ZM263.293-51.5a9.277 9.277 0 0 0-3.717.736 9.717 9.717 0 0 0-2.943 1.936 8.73 8.73 0 0 0-1.936 2.788 8.1 8.1 0 0 0-.7 3.291 13.628 13.628 0 0 0 .852 4.724 32.9 32.9 0 0 0 2.091 4.569q1.239 2.246 2.71 4.491t2.71 4.491a34.991 34.991 0 0 1 2.091 4.491 12.789 12.789 0 0 1 .852 4.569 13.07 13.07 0 0 1-1.626 6.427 17.333 17.333 0 0 1-4.3 5.111 21.02 21.02 0 0 1-6.04 3.407 19.713 19.713 0 0 1-6.848 1.243 26.646 26.646 0 0 1-8.828-1.355 22.122 22.122 0 0 1-6.5-3.446 15.369 15.369 0 0 1-4.027-4.646 10.46 10.46 0 0 1-1.394-5.034 7.25 7.25 0 0 1 1.781-4.608 18.076 18.076 0 0 1 4.3-3.833 25.28 25.28 0 0 1 5.227-2.594 14.082 14.082 0 0 1 4.569-.968 1.162 1.162 0 0 1 .988.328 1.162 1.162 0 0 1 .328.988 1.145 1.145 0 0 1-.387.891q-.387.348-1.239.968-.929.774-1.859 1.588a11.156 11.156 0 0 0-1.665 1.82 9.138 9.138 0 0 0-1.2 2.284 8.713 8.713 0 0 0-.465 2.981 8.144 8.144 0 0 0 .658 3.136 9.936 9.936 0 0 0 1.859 2.9 9.835 9.835 0 0 0 2.9 2.168 8.363 8.363 0 0 0 3.794.852 9.961 9.961 0 0 0 7.124-2.556 9.118 9.118 0 0 0 2.71-6.97 12.168 12.168 0 0 0-1.742-5.963q-1.742-3.1-3.795-6.389t-3.795-6.815a16.157 16.157 0 0 1-1.742-7.241 11.5 11.5 0 0 1 1.859-6.466A17.2 17.2 0 0 1 250.71-52a22.767 22.767 0 0 1 6.5-3.02 25.333 25.333 0 0 1 7.086-1.045 20.9 20.9 0 0 1 4.1.387 12.589 12.589 0 0 1 3.407 1.162 6.859 6.859 0 0 1 2.362 1.975 4.613 4.613 0 0 1 .891 2.827 7.422 7.422 0 0 1-1.316 4.1 18.959 18.959 0 0 1-3.1 3.64 18.483 18.483 0 0 1-3.64 2.633 6.757 6.757 0 0 1-2.865 1.007 1.268 1.268 0 0 1-.929-.387 1.116 1.116 0 0 1-.387-.774 1.493 1.493 0 0 1 .194-.736 9.65 9.65 0 0 1 .813-1.123A23.089 23.089 0 0 0 266-44.566a7.527 7.527 0 0 0 1.084-3.756 2.812 2.812 0 0 0-1.045-2.362 4.354 4.354 0 0 0-2.746-.816Z"/>
    </g>
  </g>
</svg>